<svg width="40.000000" height="46.000000" viewBox="0 0 40 46" fill="none" xmlns="http://www.w3.org/2000/svg" xmlns:xlink="http://www.w3.org/1999/xlink">
	<desc>
			Created with Pixso.
	</desc>
	<defs/>
	<path d="M37.64 19L5.77 0.16C3.18 -1.37 -0.79 0.11 -0.79 3.9L-0.79 41.58C-0.79 44.97 2.9 47.02 5.77 45.32L37.64 26.48C40.49 24.8 40.5 20.68 37.64 19ZM28.36 25.23L9.38 36.45C7.45 37.59 5.01 36.2 5.01 33.95L5.01 11.52C5.01 9.27 7.45 7.88 9.38 9.02L28.36 20.25C28.79 20.5 29.15 20.87 29.4 21.3C29.65 21.74 29.78 22.24 29.78 22.74C29.78 23.24 29.65 23.74 29.4 24.17C29.15 24.61 28.79 24.98 28.36 25.23Z" fill="#FFFFFF" fill-opacity="0.500000" fill-rule="nonzero"/>
	<path d="M9.38 9.02L28.36 20.25C28.79 20.5 29.15 20.87 29.4 21.3C29.65 21.74 29.78 22.24 29.78 22.74C29.78 23.24 29.65 23.74 29.4 24.18C29.15 24.61 28.79 24.98 28.36 25.23L9.38 36.45C7.45 37.59 5.01 36.2 5.01 33.95L5.01 11.52C5.01 9.27 7.45 7.88 9.38 9.02Z" fill="#FFFFFF" fill-opacity="1.000000" fill-rule="nonzero"/>
</svg>
